<?xml version="1.0" encoding="UTF-8" standalone="no"?>
<!DOCTYPE svg PUBLIC "-//W3C//DTD SVG 1.1//EN" "http://www.w3.org/Graphics/SVG/1.1/DTD/svg11.dtd">
<svg width="100%" height="100%" viewBox="0 0 237 161" version="1.1" xmlns="http://www.w3.org/2000/svg" xmlns:xlink="http://www.w3.org/1999/xlink" xml:space="preserve" xmlns:serif="http://www.serif.com/" style="fill-rule:evenodd;clip-rule:evenodd;stroke-linejoin:round;stroke-miterlimit:2;">
    <g transform="matrix(1,0,0,1,-491.782,-1357.09)">
        <g id="Layer-1" serif:id="Layer 1" transform="matrix(4.16667,0,0,4.16667,0,0)">
            <g transform="matrix(0.0775122,0,0,0.0775122,125.035,353.387)">
                <path d="M0,74.733L-11.674,74.733L-11.674,43.303L-78.625,43.303L-78.625,74.733L-90.398,74.733L-90.398,0L-78.625,0L-78.625,31.429L-11.674,31.429L-11.674,0L0,0L0,74.733Z" style="fill:rgb(59,106,179);fill-rule:nonzero;"/>
            </g>
            <g transform="matrix(0.0775122,0,0,0.0775122,132.901,359.18)">
                <path d="M0,-74.733L0,-37.117C0,-13.869 -13.47,0 -37.117,0L-90.398,0L-90.398,-11.873L-37.517,-11.873C-20.754,-11.873 -13.57,-17.361 -11.974,-31.429L-90.398,-31.429L-90.398,-74.733L-78.625,-74.733L-78.625,-43.303L-11.674,-43.303L-11.674,-74.733L0,-74.733Z" style="fill:rgb(59,106,179);fill-rule:nonzero;"/>
            </g>
            <g transform="matrix(0.0775122,0,0,0.0775122,139.892,358.267)">
                <path d="M0,-51.185L-66.85,-51.185L-66.85,-0.099L-25.842,-0.099C-6.784,-0.099 0,-6.785 0,-25.842L0,-51.185ZM11.675,-62.959L11.675,-25.343C11.675,-2.095 -1.696,11.774 -25.442,11.774L-78.724,11.774L-78.724,-62.959L11.675,-62.959Z" style="fill:rgb(59,106,179);fill-rule:nonzero;"/>
            </g>
            <g transform="matrix(0.0775122,0,0,0.0775122,147.743,356.922)">
                <path d="M0,-14.169L0,-33.824L-43.003,-33.824C-51.385,-33.824 -63.159,-30.931 -66.251,-14.169L0,-14.169ZM14.268,22.35L6.885,31.43L-35.52,-2.295L-66.95,-2.295L-66.95,29.135L-78.724,29.135L-78.724,-8.482C-78.724,-31.63 -65.354,-45.599 -41.507,-45.599L11.674,-45.599L11.674,-2.295L-16.862,-2.295L14.268,22.35Z" style="fill:rgb(51,51,51);fill-rule:nonzero;"/>
            </g>
            <g transform="matrix(0.0775122,0,0,0.0775122,155.624,358.267)">
                <path d="M0,-51.185L-41.108,-51.185C-60.066,-51.185 -66.95,-44.301 -66.95,-25.343L-66.95,-0.099L-25.843,-0.099C-6.785,-0.099 0,-6.785 0,-25.842L0,-51.185ZM11.674,-62.959L11.674,-25.343C11.674,-2.095 -1.696,11.774 -25.443,11.774L-78.725,11.774L-78.725,-25.842C-78.725,-49.09 -65.255,-62.959 -41.508,-62.959L11.674,-62.959Z" style="fill:rgb(51,51,51);fill-rule:nonzero;"/>
            </g>
            <g transform="matrix(0.0775122,0,0,0.0775122,166.831,353.387)">
                <path d="M0,74.733L-11.873,74.733L-11.873,11.774L-29.334,11.774C-48.292,11.774 -55.177,18.658 -55.177,37.616L-55.177,74.633L-67.05,74.633L-67.05,11.774L-84.511,11.774C-103.369,11.774 -110.153,18.558 -110.153,37.616L-110.153,74.733L-122.027,74.733L-122.027,33.724C-122.027,13.67 -107.46,0 -84.811,0L-55.177,0L-55.177,7.683C-48.69,1.896 -37.715,0 -29.933,0L0,0L0,74.733Z" style="fill:rgb(51,51,51);fill-rule:nonzero;"/>
            </g>
            <g transform="matrix(0.0775122,0,0,0.0775122,173.816,358.267)">
                <path d="M0,-51.185L-41.108,-51.185C-60.066,-51.185 -66.95,-44.301 -66.95,-25.343L-66.95,-0.099L-25.843,-0.099C-6.785,-0.099 0,-6.785 0,-25.842L0,-51.185ZM11.674,-62.959L11.674,-25.343C11.674,-2.095 -1.696,11.774 -25.443,11.774L-78.725,11.774L-78.725,-25.842C-78.725,-49.09 -65.255,-62.959 -41.508,-62.959L11.674,-62.959Z" style="fill:rgb(51,51,51);fill-rule:nonzero;"/>
            </g>
            <g transform="matrix(0.0775122,0,0,0.0775122,149.338,336.773)">
                <path d="M0,-4.459L-1.22,1.512C-1.601,3.374 -3.419,4.575 -5.281,4.195C-7.144,3.814 -8.345,1.996 -7.964,0.133L-6.744,-5.837C-6.364,-7.7 -4.545,-8.901 -2.683,-8.521C-0.821,-8.14 0.381,-6.321 0,-4.459M-26.024,-10.331L-27.321,-3.981C-27.68,-2.224 -29.397,-1.09 -31.154,-1.449L-31.533,-1.526C-33.291,-1.886 -34.425,-3.602 -34.065,-5.36L-32.768,-11.709C-32.409,-13.467 -30.692,-14.601 -28.935,-14.242L-28.556,-14.164C-26.798,-13.805 -25.664,-12.089 -26.024,-10.331M-15.696,-28.681C-39.179,-31.913 -61.518,-14.362 -69.46,11.835C-62.985,14.645 -54.456,17.878 -44.816,20.56C-32.252,24.054 -19.634,26.169 -7.312,26.845C3.773,27.454 14.64,26.892 25.133,25.174C24.688,-2.336 7.88,-25.437 -15.696,-28.681" style="fill:rgb(51,51,51);fill-rule:nonzero;"/>
            </g>
            <g transform="matrix(-0.0767875,-0.0105749,-0.0105749,0.0767875,146.573,333.593)">
                <rect x="-1.9" y="0.13" width="4.717" height="40.973" style="fill:rgb(51,51,51);"/>
            </g>
            <g transform="matrix(-0.0758073,-0.016168,-0.016168,0.0758073,150.74,334.316)">
                <rect x="-0.389" y="0.041" width="4.714" height="40.973" style="fill:rgb(51,51,51);"/>
            </g>
            <g transform="matrix(0.0105668,-0.0767886,-0.0767886,-0.0105668,146.734,332.786)">
                <path d="M-8.03,-7C-12.507,-7.001 -16.136,-3.371 -16.136,1.105C-16.136,5.582 -12.507,9.211 -8.03,9.211C-3.554,9.211 0.076,5.582 0.075,1.105C0.075,-3.371 -3.554,-7 -8.03,-7" style="fill:rgb(51,51,51);fill-rule:nonzero;"/>
            </g>
            <g transform="matrix(0.0161656,-0.0758078,-0.0758078,-0.0161656,150.89,333.51)">
                <path d="M-7.928,-6.415C-12.404,-6.415 -16.034,-2.786 -16.033,1.691C-16.034,6.167 -12.404,9.797 -7.928,9.796C-3.451,9.796 0.179,6.167 0.178,1.691C0.178,-2.786 -3.451,-6.416 -7.928,-6.415" style="fill:rgb(51,51,51);fill-rule:nonzero;"/>
            </g>
            <g transform="matrix(0.0775122,0,0,0.0775122,156.118,340.738)">
                <path d="M0,-85.756C0,-33.566 -42.308,8.742 -94.498,8.742L-184.551,8.742L-184.551,-81.313C-184.551,-133.502 -142.243,-175.81 -90.054,-175.81L0,-175.81L0,-85.756ZM-93.367,-193.997C-153.771,-193.997 -202.738,-145.03 -202.738,-84.625L-202.738,108.241L-184.551,108.241L-184.551,26.929L-94.496,26.929C-32.263,26.929 18.187,-23.521 18.187,-85.754L18.187,-193.997L-93.367,-193.997" style="fill:rgb(38,91,170);fill-rule:nonzero;"/>
            </g>
            <g transform="matrix(0.0775122,0,0,0.0775122,145.158,341.081)">
                <path d="M0,-51.469L0,-85.744C0,-114.102 22.988,-137.09 51.346,-137.091L98.25,-137.091L98.25,-90.187C98.25,-61.829 75.261,-38.84 46.903,-38.84L0.207,-38.84M51.346,-155.278C12.944,-155.278 -18.187,-124.146 -18.187,-85.744L-18.187,103.809L0,103.809L0,-20.653L46.904,-20.653C85.307,-20.653 116.438,-51.784 116.438,-90.186L116.438,-155.278L51.346,-155.278Z" style="fill:rgb(38,91,170);fill-rule:nonzero;"/>
            </g>
            <g transform="matrix(0.0775122,0,0,0.0775122,138.91,364.048)">
                <path d="M0,-31.636L4.292,-31.636L4.292,-18.13L8.51,-18.13L8.51,-14.357L4.292,-14.357L4.292,1.295L0,1.295L0,-31.636ZM-8.362,-14.764C-8.362,-15.799 -8.505,-16.625 -8.788,-17.242C-9.071,-17.859 -9.436,-18.322 -9.879,-18.63C-10.323,-18.938 -10.829,-19.142 -11.396,-19.241C-11.964,-19.339 -12.543,-19.389 -13.135,-19.389C-13.678,-19.389 -14.227,-19.339 -14.781,-19.241C-15.337,-19.142 -15.836,-18.938 -16.28,-18.63C-16.725,-18.322 -17.089,-17.859 -17.372,-17.242C-17.655,-16.625 -17.797,-15.799 -17.797,-14.764L-17.797,-6.809C-17.797,-5.723 -17.655,-4.866 -17.372,-4.237C-17.089,-3.608 -16.725,-3.133 -16.28,-2.813C-15.836,-2.492 -15.337,-2.288 -14.781,-2.202C-14.227,-2.116 -13.678,-2.073 -13.135,-2.073C-12.543,-2.073 -11.964,-2.122 -11.396,-2.221C-10.829,-2.32 -10.323,-2.535 -9.879,-2.868C-9.436,-3.201 -9.071,-3.676 -8.788,-4.292C-8.505,-4.908 -8.362,-5.747 -8.362,-6.809L-8.362,-14.764ZM-4.07,-5.847C-4.07,-5.279 -4.2,-4.575 -4.459,-3.738C-4.718,-2.9 -5.181,-2.091 -5.847,-1.314C-6.513,-0.537 -7.437,0.123 -8.621,0.666C-9.806,1.208 -11.322,1.479 -13.172,1.479C-15.097,1.479 -16.645,1.202 -17.815,0.647C-18.987,0.092 -19.888,-0.574 -20.517,-1.351C-21.146,-2.128 -21.565,-2.936 -21.774,-3.775C-21.984,-4.613 -22.089,-5.316 -22.089,-5.884L-22.089,-15.615C-22.089,-16.206 -21.991,-16.915 -21.793,-17.742C-21.596,-18.569 -21.183,-19.37 -20.554,-20.147C-19.925,-20.924 -19.024,-21.583 -17.853,-22.126C-16.682,-22.669 -15.121,-22.941 -13.172,-22.941C-11.298,-22.941 -9.769,-22.663 -8.584,-22.108C-7.4,-21.553 -6.476,-20.887 -5.81,-20.11C-5.144,-19.333 -4.687,-18.532 -4.44,-17.705C-4.194,-16.878 -4.07,-16.182 -4.07,-15.615L-4.07,-5.847ZM-22.866,-28.416L-15.17,-28.416L-15.17,-33.115L-10.878,-33.115L-10.878,-28.416L-3.108,-28.416L-3.108,-24.643L-22.866,-24.643L-22.866,-28.416Z" style="fill:rgb(38,91,170);fill-rule:nonzero;"/>
            </g>
            <g transform="matrix(0.0775122,0,0,0.0775122,107.362,343.475)">
                <path d="M461.022,233.784L465.314,233.784L465.314,266.715L461.022,266.715L461.022,233.784ZM450.107,242.405C450.107,241.271 449.964,240.358 449.681,239.668C449.398,238.977 449.028,238.446 448.572,238.076C448.115,237.707 447.603,237.46 447.035,237.337C446.468,237.214 445.889,237.151 445.297,237.151C444.754,237.151 444.205,237.207 443.651,237.318C443.095,237.428 442.596,237.664 442.152,238.021C441.708,238.379 441.344,238.903 441.06,239.593C440.777,240.284 440.635,241.221 440.635,242.405L440.635,258.093C440.635,259.277 440.777,260.214 441.06,260.905C441.344,261.595 441.708,262.127 442.152,262.497C442.596,262.866 443.095,263.107 443.651,263.217C444.205,263.329 444.754,263.384 445.297,263.384C445.889,263.384 446.468,263.322 447.035,263.199C447.603,263.076 448.115,262.83 448.572,262.46C449.028,262.089 449.398,261.558 449.681,260.868C449.964,260.178 450.107,259.253 450.107,258.093L450.107,242.405ZM454.399,256.613C454.399,257.921 454.269,259.191 454.01,260.424C453.751,261.658 453.283,262.756 452.605,263.717C451.926,264.679 450.994,265.457 449.811,266.048C448.627,266.64 447.11,266.936 445.26,266.936C443.336,266.936 441.787,266.64 440.617,266.048C439.445,265.457 438.544,264.679 437.915,263.717C437.286,262.756 436.867,261.658 436.658,260.424C436.448,259.191 436.343,257.921 436.343,256.613L436.343,243.885C436.343,242.578 436.441,241.308 436.639,240.074C436.836,238.841 437.249,237.743 437.878,236.781C438.507,235.819 439.408,235.048 440.579,234.468C441.75,233.889 443.311,233.599 445.26,233.599C447.134,233.599 448.663,233.895 449.848,234.487C451.032,235.08 451.962,235.856 452.641,236.818C453.32,237.78 453.782,238.879 454.029,240.111C454.275,241.345 454.399,242.603 454.399,243.885L454.399,256.613Z" style="fill:rgb(38,91,170);fill-rule:nonzero;"/>
            </g>
            <g transform="matrix(0.0775122,0,0,0.0775122,147.399,362.534)">
                <path d="M0,8.399L-26.271,8.399L-26.271,-12.099L0,-12.099L0,-8.325L-21.979,-8.325L-21.979,4.626L0,4.626L0,8.399ZM-28.12,16.724L1.85,16.724L1.85,20.498L-28.12,20.498L-28.12,16.724Z" style="fill:rgb(38,91,170);fill-rule:nonzero;"/>
            </g>
            <g transform="matrix(0.0775122,0,0,0.0775122,149.378,363.38)">
                <path d="M0,-13.432L21.979,-13.432L21.979,-19.241L0,-19.241L0,-23.015L26.27,-23.015L26.27,-9.658L4.291,-9.658L4.291,-3.701L26.232,-3.701L26.232,0.074L15.281,0.074L15.281,5.808L28.119,5.808L28.119,9.583L-1.85,9.583L-1.85,5.808L10.988,5.808L10.988,0.074L0,0.074L0,-13.432Z" style="fill:rgb(102,103,102);fill-rule:nonzero;"/>
            </g>
            <g transform="matrix(0.0775122,0,0,0.0775122,107.362,343.446)">
                <path d="M598.143,253.505L615.866,253.505L615.866,237.928L598.143,237.928L598.143,253.505ZM593.85,234.154L620.159,234.154L620.159,257.279L609.132,257.279L609.132,262.977L621.971,262.977L621.971,266.751L592.001,266.751L592.001,262.977L604.841,262.977L604.841,257.279L593.85,257.279L593.85,234.154Z" style="fill:rgb(102,103,102);fill-rule:nonzero;"/>
            </g>
        </g>
    </g>
</svg>
